<?xml version="1.0" encoding="UTF-8" standalone="no"?>
<svg
   xmlns:dc="http://purl.org/dc/elements/1.1/"
   xmlns:cc="http://creativecommons.org/ns#"
   xmlns:rdf="http://www.w3.org/1999/02/22-rdf-syntax-ns#"
   xmlns:svg="http://www.w3.org/2000/svg"
   xmlns="http://www.w3.org/2000/svg"
   xmlns:sodipodi="http://sodipodi.sourceforge.net/DTD/sodipodi-0.dtd"
   xmlns:inkscape="http://www.inkscape.org/namespaces/inkscape"
   id="a6791429-d438-45aa-bc7c-827b738cb04a"
   data-name="Layer 1"
   width="928.52587"
   height="635.2126"
   viewBox="0 0 928.52587 635.2126"
   version="1.1"
   sodipodi:docname="hero.svg"
   inkscape:version="1.0.1 (0767f8302a, 2020-10-17)">
  <metadata
     id="metadata57">
    <rdf:RDF>
      <cc:Work
         rdf:about="">
        <dc:format>image/svg+xml</dc:format>
        <dc:type
           rdf:resource="http://purl.org/dc/dcmitype/StillImage" />
      </cc:Work>
    </rdf:RDF>
  </metadata>
  <defs
     id="defs55" />
  <sodipodi:namedview
     pagecolor="#ffffff"
     bordercolor="#666666"
     borderopacity="1"
     objecttolerance="10"
     gridtolerance="10"
     guidetolerance="10"
     inkscape:pageopacity="0"
     inkscape:pageshadow="2"
     inkscape:window-width="1343"
     inkscape:window-height="830"
     id="namedview53"
     showgrid="false"
     inkscape:zoom="0.79815799"
     inkscape:cx="313.91677"
     inkscape:cy="317.60629"
     inkscape:window-x="451"
     inkscape:window-y="123"
     inkscape:window-maximized="0"
     inkscape:current-layer="a6791429-d438-45aa-bc7c-827b738cb04a" />
  <circle
     cx="547.21484"
     cy="235.16792"
     r="233"
     fill="#f2f2f2"
     id="circle2" />
  <path
     d="m 132.21752,565.5135 a 39.063,39.063 0 0 0 37.72112,-6.64475 c 13.212,-11.08918 17.35435,-29.35853 20.72485,-46.275 l 9.96924,-50.03559 -20.87165,14.37143 c -15.00965,10.33508 -30.35744,21.00127 -40.75007,35.97113 -10.39263,14.96986 -14.929,35.40506 -6.57885,51.60315"
     fill="#e6e6e6"
     id="path4" />
  <path
     d="m 134.00162,626.092 c -2.11249,-15.38745 -4.28468,-30.97255 -2.80288,-46.52494 1.316,-13.81219 5.52988,-27.30282 14.10882,-38.36422 a 63.8196,63.8196 0 0 1 16.37384,-14.83745 c 1.63739,-1.03352 3.14442,1.5614 1.51416,2.59041 a 60.67183,60.67183 0 0 0 -23.99889,28.9564 c -5.22489,13.28948 -6.06393,27.77612 -5.16355,41.89338 0.54449,8.53722 1.69847,17.01851 2.86134,25.48891 a 1.55428,1.55428 0 0 1 -1.04766,1.84517 1.50915,1.50915 0 0 1 -1.84518,-1.04766 z"
     fill="#f2f2f2"
     id="path6" />
  <path
     d="m 273.80252,604.89866 a 22.26366,22.26366 0 0 0 20.4619,7.60621 c 9.69252,-1.64386 16.99541,-9.4324 23.52884,-16.77825 l 19.32458,-21.72757 -14.40468,1.04974 c -10.359,0.75491 -20.97969,1.57515 -30.4046,5.93973 -9.42491,4.36458 -17.54587,13.10443 -18.10946,23.4756"
     fill="#e6e6e6"
     id="path8" />
  <path
     d="m 257.21774,635.19786 c 3.39683,-8.17455 6.82128,-16.46349 12.03288,-23.68308 4.62846,-6.41176 10.589,-11.8301 17.99559,-14.7958 a 36.37365,36.37365 0 0 1 12.32755,-2.57538 c 1.103,-0.0362 1.096,1.67409 -0.002,1.7101 a 34.57944,34.57944 0 0 0 -20.14644,7.31937 c -6.39969,5.028 -10.988,11.90886 -14.61472,19.1095 -2.19317,4.35449 -4.07055,8.85716 -5.94042,13.35705 a 0.88586,0.88586 0 0 1 -1.047,0.60523 0.86012,0.86012 0 0 1 -0.60523,-1.047 z"
     fill="#f2f2f2"
     id="path10" />
  <path
     d="m 154.34874,598.86349 a 28.75529,28.75529 0 0 0 25.05474,12.93133 c 12.68315,-0.60208 23.25684,-9.45412 32.77516,-17.85807 l 28.15329,-24.85722 -18.63277,-0.89169 c -13.39961,-0.64126 -27.14492,-1.23941 -39.90759,2.89278 -12.76267,4.13219 -24.53307,14.0769 -26.8668,27.28729"
     fill="#e6e6e6"
     id="path12" />
  <path
     d="m 128.03158,634.93752 c 10.16773,-17.99115 21.9614,-37.98626 43.03473,-44.377 a 48.022,48.022 0 0 1 18.10109,-1.869 c 1.9218,0.16571 1.44191,3.1281 -0.4764,2.9627 a 44.61381,44.61381 0 0 0 -28.88649,7.64231 c -8.1449,5.544 -14.48659,13.25165 -19.85414,21.42525 -3.28779,5.00658 -6.23278,10.22556 -9.17833,15.43754 -0.94134,1.66563 -3.69279,0.46328 -2.74046,-1.22182 z"
     fill="#f2f2f2"
     id="path14" />
  <path
     d="m 567.13916,327.84934 c 20.21713,-11.11154 45.37875,-8.88155 67.16141,-1.28454 21.78266,7.59701 41.52211,20.04317 62.67523,29.24883 64.64,28.1308 142.54824,23.5948 203.48691,-11.84751 5.76335,13.406 -0.41945,28.74022 -7.21108,41.65571 -6.79163,12.91549 -14.53209,26.914 -11.7363,41.236 3.57763,18.32718 22.793,29.31536 30.57874,46.28791 7.39086,16.11167 3.42387,35.0325 -2.24615,51.82719 -5.67002,16.79469 -13.028,33.7152 -12.06453,51.415 0.96347,17.6998 13.82268,36.416 31.54867,36.43 -26.26936,4.08171 -53.0555,8.16626 -79.3089,3.9832 -26.2534,-4.18306 -52.36859,-18.06777 -64.55825,-41.693 -6.09277,-11.80863 -8.44148,-25.38593 -15.43872,-36.68213 -11.91826,-19.2406 -34.79115,-28.28862 -56.37224,-35.1079 -21.58109,-6.81928 -44.6762,-13.38826 -59.871,-30.16213 -14.47787,-15.98239 -19.06353,-38.24611 -26.73413,-58.4007 a 186.53661,186.53661 0 0 0 -64.58839,-84.22984"
     fill="#D5B63C"
     id="path16" />
  <path
     d="m 590.56402,244.11243 c -7.097,-3.30155 -15.81044,-4.38389 -23.03182,-1.316 -7.22138,3.06789 -12.14452,10.93154 -9.80947,17.89083 1.05869,3.15524 3.46989,6.25835 2.53051,9.445 -0.72307,2.45285 -3.24546,4.07226 -5.72259,5.22372 -2.47713,1.15146 -5.18694,2.11952 -6.97842,4.06155 -1.79148,1.94203 -2.16509,5.28533 0.0729,6.79139 0.73731,0.49618 1.65885,0.7315 2.37375,1.25437 a 3.772,3.772 0 0 1 1.16432,4.22219 8.89329,8.89329 0 0 1 -2.85084,3.75066 c -2.54053,2.19094 -5.89807,4.69849 -5.10925,7.80873 a 5.47831,5.47831 0 0 0 3.697,3.45788 18.36721,18.36721 0 0 0 5.42688,0.71626 l 74.96621,2.36156 a 28.422,28.422 0 0 0 7.40167,-0.41344 8.76185,8.76185 0 0 0 5.81294,-3.905 c 1.43559,-2.65728 0.4931,-5.93057 -1.2798,-8.41186 -1.7729,-2.48129 -4.282,-4.43862 -6.35525,-6.71709 -2.07325,-2.27847 -3.76948,-5.1227 -3.404,-8.06747 0.29256,-2.35733 1.84718,-4.39471 2.96321,-6.53661 1.11603,-2.1419 1.76427,-4.81847 0.31886,-6.78893 -2.03678,-2.77665 -6.92687,-2.5255 -9.24284,-5.11283 -1.74777,-1.95256 -1.41027,-4.76346 -1.58405,-7.28135 -0.418,-6.05656 -4.61117,-11.77645 -10.58027,-14.43257 a 20.83058,20.83058 0 0 0 -18.95323,1.29081 z"
     fill="#2f2e41"
     id="path18" />
  <polygon
     points="530.644,618.571 538.663,571.604 555.992,576.811 542.385,622.099 "
     fill="#a0616a"
     id="polygon20"
     transform="translate(0.80622341,2.167925)" />
  <path
     d="m 542.76659,636.5478 -37.85868,-11.37465 0.14386,-0.47886 a 15.386,15.386 0 0 1 19.16265,-10.30886 l 9.3e-4,2.8e-4 23.12268,6.9473 z"
     fill="#2f2e41"
     id="path22" />
  <polygon
     points="640.922,622.495 635.09,575.207 653.184,575.208 653.182,622.496 "
     fill="#a0616a"
     id="polygon24"
     transform="translate(0.80622341,2.167925)" />
  <path
     d="m 657.1145,636.5478 -39.53051,-0.001 v -0.5 a 15.38605,15.38605 0 0 1 15.38647,-15.38623 h 10e-4 l 24.1438,10e-4 z"
     fill="#2f2e41"
     id="path26" />
  <path
     d="m 636.96962,588.8977 a 4.50048,4.50048 0 0 1 -4.4414,-3.78808 L 614.32485,471.55493 a 3.50022,3.50022 0 0 0 -6.68824,-0.78906 L 560.47524,584.302 a 4.51622,4.51622 0 0 1 -5.57862,2.54394 l -17.03418,-5.67871 a 4.48511,4.48511 0 0 1 -2.9663,-5.26074 l 38.64892,-171.02148 a 4.52538,4.52538 0 0 1 3.37183,-3.3916 l 51.83252,-12.03218 a 4.5623,4.5623 0 0 1 3.70752,0.76953 c 34.13037,24.79883 31.24707,105.82129 24.88623,193.79785 a 4.50192,4.50192 0 0 1 -4.29444,4.17383 l -15.88183,0.69141 c -0.0659,0.002 -0.13184,0.004 -0.19727,0.004 z"
     fill="#2f2e41"
     id="path28" />
  <circle
     cx="593.33777"
     cy="284.63864"
     r="24.561029"
     fill="#a0616a"
     id="circle30" />
  <path
     d="m 594.39809,411.93579 a 39.89858,39.89858 0 0 1 -17.02368,-3.93457 l -0.18262,-0.085 -0.0725,-0.18848 -22.02954,-57.07617 -0.41895,-9.917 a 23.7725,23.7725 0 0 1 25.09037,-24.74019 l 23.38769,1.31739 a 23.787,23.787 0 0 1 22.43677,23.61035 c 0.60742,1.167 4.92139,10.292 -3.533,18.86523 -0.31592,1.95215 -3.27319,22.24707 7.88672,33.40723 l 0.31372,0.31347 -0.27417,0.34864 c -0.17773,0.22654 -14.51024,18.07617 -35.5808,18.0791 z"
     fill="#3f3d56"
     id="path32" />
  <path
     d="m 627.24007,416.24148 a 10.05576,10.05576 0 0 0 5.277,-14.48823 l 23.35887,-27.04334 -18.41436,-2.39689 -19.35886,26.04828 a 10.11028,10.11028 0 0 0 9.13733,17.88018 z"
     fill="#a0616a"
     id="path34" />
  <path
     d="m 641.84462,395.36841 a 4.48916,4.48916 0 0 1 -2.46875,-0.74024 l -11.553,-7.57715 a 4.49134,4.49134 0 0 1 -1.39892,-6.06445 l 8.36377,-14.05176 a 6.27236,6.27236 0 0 0 -2.824,-8.93164 l -24.02783,-10.77246 a 14.32392,14.32392 0 0 1 -8.11206,-15.915 v 0 a 14.24089,14.24089 0 0 1 20.43237,-9.7539 l 36.45215,18.67871 a 19.17711,19.17711 0 0 1 6.80493,28.28906 l -18.02022,24.96965 a 4.48892,4.48892 0 0 1 -3.64844,1.86918 z"
     fill="#3f3d56"
     id="path36" />
  <path
     d="m 568.21116,281.14677 c 7.75642,-0.62285 14.19623,-8.3714 13.38973,-16.11089 a 13.00909,13.00909 0 0 0 11.14121,13.24574 c 3.55787,0.392 7.4584,-0.68444 10.55524,1.11047 3.43,1.988 4.52758,6.81578 8.10091,8.53283 3.45255,1.659 7.83771,-0.60362 9.54346,-4.03331 1.70575,-3.42969 1.28713,-7.5502 0.15669,-11.21005 a 31.65248,31.65248 0 0 0 -52.68951,-12.97513 c -3.26143,3.28049 -5.851,7.46146 -6.271,12.06821 -0.42,4.60675 1.717,9.60535 5.85416,11.67486 z"
     fill="#2f2e41"
     id="path38" />
  <path
     d="m 511.07047,213.11213 a 10.05578,10.05578 0 0 1 3.10451,15.10357 l 19.15887,30.16483 -18.567,-0.31813 -15.34707,-28.59626 a 10.11027,10.11027 0 0 1 11.65066,-16.354 z"
     fill="#a0616a"
     id="path40" />
  <path
     d="m 526.51301,234.59191 24.67358,58.30169 25.86871,43.86419 a 14.18889,14.18889 0 0 1 -8.12022,20.7901 v 0 a 14.26532,14.26532 0 0 1 -16.95083,-7.56917 L 502.12696,243.44644 a 4.49993,4.49993 0 0 1 2.69943,-6.19151 l 16.16594,-5.193 a 4.60035,4.60035 0 0 1 0.94246,-0.19733 4.47425,4.47425 0 0 1 4.57822,2.72731 z"
     fill="#3f3d56"
     id="path42" />
  <path
     d="m 598.66449,110.38053 v 82 a 1,1 0 1 1 -2,0 v -82 a 1,1 0 0 1 2,0 z"
     fill="#ccc"
     id="path46" />
  <path
     d="m 685.49011,179.9455 -28.28427,28.28427 a 1,1 0 0 1 -1.41421,-1.41421 l 28.28427,-28.28427 a 1,1 0 1 1 1.41421,1.41421 z"
     fill="#ccc"
     id="path48" />
  <path
     d="m 509.83887,179.9455 28.28429,28.28427 a 1.000001,1.000001 0 0 0 1.41422,-1.41421 L 511.2531,178.53129 a 1,1 0 1 0 -1.41421,1.41421 z"
     fill="#ccc"
     id="path50" />
</svg>
