<?xml version="1.0" encoding="UTF-8" standalone="no"?>
<svg
   xmlns:dc="http://purl.org/dc/elements/1.1/"
   xmlns:cc="http://creativecommons.org/ns#"
   xmlns:rdf="http://www.w3.org/1999/02/22-rdf-syntax-ns#"
   xmlns:svg="http://www.w3.org/2000/svg"
   xmlns="http://www.w3.org/2000/svg"
   xmlns:sodipodi="http://sodipodi.sourceforge.net/DTD/sodipodi-0.dtd"
   xmlns:inkscape="http://www.inkscape.org/namespaces/inkscape"
   version="1.1"
   id="Layer_1"
   x="0px"
   y="0px"
   viewBox="0 0 120 120"
   style="enable-background:new 0 0 120 120;"
   xml:space="preserve"
   sodipodi:docname="logo.svg"
   inkscape:version="1.0.1 (0767f8302a, 2020-10-17)"><metadata
   id="metadata15"><rdf:RDF><cc:Work
       rdf:about=""><dc:format>image/svg+xml</dc:format><dc:type
         rdf:resource="http://purl.org/dc/dcmitype/StillImage" /><dc:title></dc:title></cc:Work></rdf:RDF></metadata><defs
   id="defs13" /><sodipodi:namedview
   pagecolor="#ffffff"
   bordercolor="#666666"
   borderopacity="1"
   objecttolerance="10"
   gridtolerance="10"
   guidetolerance="10"
   inkscape:pageopacity="0"
   inkscape:pageshadow="2"
   inkscape:window-width="1170"
   inkscape:window-height="639"
   id="namedview11"
   showgrid="false"
   inkscape:zoom="2.1125"
   inkscape:cx="19.619082"
   inkscape:cy="51.508047"
   inkscape:window-x="2034"
   inkscape:window-y="149"
   inkscape:window-maximized="0"
   inkscape:current-layer="g8" />
<style
   type="text/css"
   id="style2">
	.st0{fill:#B8B7F7;}
	.st1{fill:#00205B;}
</style>
<g
   id="g8">
	
	<path
   class="st1"
   d="M110.14,21.64c-0.3-3.44-1.5-10.77-4.22-15.17c-1.97-3.18-6.43-5.19-10.69-5.42   C90.1,0.77,82.18,1.77,79.78,2.31c-6.65,1.51-13.12,3.57-19.27,6.33c-6.16,2.75-12.05,6.07-17.61,9.84   c-5.58,3.77-14.7,11.88-19.06,16.42c-2.64,2.75-7.82,8.87-9.59,11.81c-1.77,2.93-3.27,6.1-4.1,9.57c-0.4,1.74-0.6,3.56-0.47,5.42   c0.11,1.84,0.62,3.75,1.48,5.4c0.83,1.63,1.82,3.05,2.87,4.42c1.03,1.38,2.15,2.66,3.27,3.93c2.26,2.52,4.63,4.9,7.06,7.22   c4.86,4.62,9.95,8.95,15.13,13.15c5.19,4.2,10.49,8.25,15.9,12.16c2.71,1.95,5.45,3.87,8.24,5.72c1.4,0.94,2.8,1.83,4.27,2.75   c0.82,0.49,1.67,0.93,2.57,1.29c0.87,0.35,1.91,0.7,2.52,0.8l0.26,0.07c2.39,0.52,4.95,0.5,7.36-0.09c0.2-0.03,0.4-0.06,0.62-0.11   c0.15-0.04,0.31-0.08,0.47-0.14c0.06-0.02,0.13-0.04,0.19-0.07c0.22-0.05,0.44-0.12,0.63-0.19c0.28-0.1,0.46-0.19,0.62-0.25   c3.59-1.55,6.55-4.31,8.49-7.55c0.5-0.81,0.91-1.65,1.3-2.51c0.18-0.44,0.37-0.86,0.52-1.31l0.23-0.66l0.19-0.6l1.5-4.77   c1.98-6.36,3.86-12.74,5.63-19.17c3.51-12.86,6.61-25.88,8.35-39.22C110.16,35.29,110.7,28.53,110.14,21.64z M42.01,92.62   c-5.22-4.03-10.32-8.22-15.17-12.63c-2.42-2.21-4.78-4.49-7-6.86c-1.09-1.2-2.16-2.42-3.13-3.68c-0.98-1.25-1.9-2.56-2.59-3.88   c-1.37-2.52-1.47-5.57-0.82-8.57c0.69-3,2-5.92,3.64-8.67c0.7-1.16,4.39-6,9.34-10.96C33,30.67,41.63,23.38,44.77,21.3   c5.45-3.61,11.23-6.72,17.22-9.29c1.15-0.49,2.31-0.97,3.48-1.42c4.9-1.89,9.94-3.4,15.06-4.35C82.13,5.99,93.48,3.9,98.7,6.46   c2.52,1.24,4.63,5.06,5.17,6.45c1.07,2.79,1.58,5.92,1.82,9.09c0.46,6.35-0.11,12.89-0.98,19.36c-1.82,12.96-5.01,25.79-8.53,38.5   c-0.53,1.88-1.09,3.76-1.63,5.64c1.54-9.26,2.79-18.58,3.28-28.02c0.25-5.11,0.26-10.26-0.31-15.44c-0.3-2.59-0.73-5.19-1.53-7.76   c-0.38-1.29-0.9-2.56-1.5-3.8c-0.63-1.23-1.41-2.47-2.38-3.52c-0.96-1.07-2.14-2.03-3.48-2.71c-1.32-0.68-3.8-1.39-5.2-1.46   c-1.98-0.1-4.44,0.05-6.97,0.41c-5.21,0.72-10.27,2.16-14.98,4.31c-4.71,2.17-9.14,4.86-13.22,8s-7.81,6.73-11.11,10.68   c-0.8,1.01-3.86,5.17-4.53,6.28c-1.35,2.22-2.5,4.58-3.34,7.08c-0.4,1.26-1.25,5.03-0.75,8c0.78,4.66,4.2,9.64,7.37,13.57   c1.6,1.99,3.34,3.87,5.08,5.73c3.48,3.72,7.09,7.29,10.77,10.8c3.38,3.21,6.83,6.33,10.35,9.38c-1.37-0.91-2.74-1.83-4.1-2.76   c-0.04-0.03-0.08-0.05-0.12-0.08C52.49,100.48,47.19,96.62,42.01,92.62z M87.71,99.5c0.13-0.86,0.27-1.72,0.39-2.59   c0.87-6.22,1.57-12.48,1.7-18.83c0.06-3.18-0.04-6.38-0.53-9.62c-0.24-1.61-0.6-3.24-1.16-4.86c-0.56-1.6-1.35-3.26-2.66-4.66   c-0.65-0.69-2.29-1.54-3.77-2.03s-4.79-0.58-6.44-0.35c-3.32,0.45-6.44,1.63-9.29,3.16c-2.86,1.54-5.46,3.46-7.79,5.67   c-2.32,2.2-4.41,4.65-6.11,7.38c-1.65,2.72-3.09,5.77-3.16,9.16c-0.05,1.67,0.37,3.44,1.18,4.91c0.79,1.44,1.71,2.74,2.65,4.02   c1.9,2.54,3.98,4.91,6.11,7.22c2.13,2.31,4.31,4.57,6.55,6.77c0.38,0.38,0.78,0.74,1.16,1.12c-0.38-0.3-0.75-0.6-1.13-0.9   c-3.9-3.16-7.74-6.41-11.5-9.76c-3.75-3.35-7.42-6.79-10.94-10.36c-3.51-3.57-6.95-7.27-9.71-11.32c-0.36-0.5-2.22-3.89-2.7-6.38   c-0.55-2.91,0.57-6.21,0.93-7.36c0.78-2.29,1.79-4.13,3.08-6.22c0.64-1.05,3.6-5.01,4.36-5.98c3.17-3.81,6.9-7.15,10.88-10.1   c3.99-2.94,8.32-5.43,12.86-7.35c4.54-1.9,9.3-3.27,14.13-3.74c0.6-0.1,5.29-0.5,7.11-0.24c2.4,0.34,4.11,1.42,5.55,3.06   c1.44,1.62,2.39,3.74,3.07,6.01c0.69,2.26,1.07,4.68,1.34,7.11c0.5,4.88,0.45,9.87,0.16,14.85c-0.59,9.97-2.08,19.92-3.86,29.82   C89.41,91.24,88.58,95.37,87.71,99.5z M86.26,78.03c-0.07,6.12-2.1,22.65-2.6,26.11c-0.28,1.97-0.2,4.26-3.66,5.99   c-2.45,1.22-5.49-0.8-7.47-2.28c-2.47-1.85-3.18-2.72-5.48-4.8c-4.58-4.17-9.06-8.51-12.92-13.29c-0.96-1.19-1.84-2.45-2.56-3.74   c-0.71-1.26-1.04-2.62-1.02-4.07c0.04-2.89,1.26-5.78,2.89-8.3c3.29-5.1,8.22-9.12,13.65-11.63c2.72-1.25,5.62-2.06,8.5-2.32   c1.44-0.14,5.35-0.06,7.33,1.61C84.43,62.57,86.39,66.55,86.26,78.03z"
   id="path6"
   style="fill:#cca712;fill-opacity:1" />
</g>
</svg>
