<?xml version="1.0" encoding="iso-8859-1"?>
<!-- Generator: Adobe Illustrator 19.2.0, SVG Export Plug-In . SVG Version: 6.00 Build 0)  -->
<svg version="1.1"  xmlns="http://www.w3.org/2000/svg" xmlns:xlink="http://www.w3.org/1999/xlink" x="0px" y="0px"
	 viewBox="0 0 48 48" style="enable-background:new 0 0 48 48;" xml:space="preserve">
<ellipse style="fill:#47667F;" cx="24.5" cy="35.5" rx="11.5" ry="10.5"/>
<ellipse style="fill:#C5CAD5;" cx="24.5" cy="35" rx="10.988" ry="9.562"/>
<polygon style="fill:#C5CAD5;" points="5,10 24,21 24,43 6,30 "/>
<polygon style="fill:#6D83B3;" points="43,10 24,21 24,43 42,30 "/>
<path style="fill:#5A6E91;" d="M24.5,44.562c0.271,0,0.536-0.018,0.802-0.035l9.811-7.086c0.237-0.781,0.375-1.596,0.375-2.441
	c0-0.096-0.013-0.189-0.016-0.285L24,43l-10.462-7.556c0.055,1.047,0.301,2.049,0.713,2.982l8.27,5.973
	C23.164,44.501,23.823,44.562,24.5,44.562z"/>
<polygon style="fill:#EAF4F8;" points="5,10 24,21 43,10 24,1 "/>
<polygon style="fill:#34495E;" points="11.65,9.85 24,17 36.35,9.85 24,4 "/>
<polygon style="fill:#34495E;" points="40,28 40.645,15.1 27,23 27,37.389 "/>
<polygon style="fill:#34495E;" points="8,28 7.355,15.1 21,23 21,37.389 "/>
<polyline style="fill:none;stroke:#EAF4F8;stroke-miterlimit:10;" points="19,5.5 21.406,6.688 18.969,10.031 26.25,7.656 
	24.656,11.344 29.281,9.719 27.219,14.188 30,16 "/>
<path style="fill:#ECF0F1;" d="M28.821,27.401c0.063,0.491-0.501,2.796-0.533,3.079c-0.036,0.321-0.211,0.491-0.543,0.625
	c-0.092-0.869-0.187-1.709-0.267-2.552c-0.022-0.236,0.205-0.267,0.371-0.397c0.063,0.687,0.127,1.443,0.186,2.087
	c0.021,0.003,0.341-1.532,0.45-2.252C28.524,27.735,28.606,27.54,28.821,27.401L28.821,27.401z"/>
<path style="fill:#ECF0F1;" d="M38.779,22.403c-0.117,0.276-0.084,0.765-0.517,0.962c-0.026-0.26,0.08-0.476,0.162-0.679
	c0.181-0.449,0.242-0.886,0.015-1.331c-0.108-0.211,0.048-0.288,0.181-0.37c0.232-0.143,0.133,0.159,0.275,0.191
	c0.156-0.202,0.061-0.591,0.431-0.673c0.07,0.125-0.025,0.246-0.069,0.347c-0.222,0.509-0.291,1.012-0.023,1.525
	c0.128,0.245-0.022,0.332-0.192,0.433c-0.033,0.02-0.088,0.058-0.154-0.095C38.846,22.615,38.818,22.514,38.779,22.403
	L38.779,22.403z"/>
<path style="fill:#ECF0F1;" d="M28.995,29.974c0.048-0.594,0.108-1.188,0.138-1.783c0.011-0.216,0.079-0.35,0.343-0.436
	c-0.047,0.731-0.088,1.435-0.139,2.139c-0.012,0.169-0.058,0.231-0.235,0.304C28.995,30.243,28.995,29.974,28.995,29.974
	L28.995,29.974z"/>
<path style="fill:#ECF0F1;" d="M29.506,26.81c0.166,0.09,0.05,0.352-0.044,0.517c-0.044,0.079-0.101,0.171-0.202,0.155
	c-0.119-0.018-0.107-0.14-0.112-0.225C29.142,27.151,29.314,26.706,29.506,26.81z"/>
<path style="fill:#ECF0F1;" d="M19.753,29.691c-0.388-0.278-0.743-0.532-1.159-0.83c0.082,0.422,0.244,0.719,0.534,0.94
	c0.264,0.202,0.533,0.396,0.808,0.583c0.133,0.09,0.215,0.123,0.13,0.263c-0.112,0.185-0.228,0.076-0.311,0.029
	c-0.867-0.489-1.381-1.221-1.51-2.213c-0.014-0.105-0.032-0.212-0.026-0.317c0.013-0.224,0.013-0.471,0.25-0.59
	c0.222-0.111,0.37,0.079,0.529,0.186c0.242,0.163,0.47,0.349,0.715,0.508c0.146,0.095,0.177,0.167,0.099,0.292
	c-0.118,0.189-0.222,0.036-0.3-0.011c-0.171-0.101-0.323-0.232-0.488-0.344c-0.137-0.093-0.411-0.285-0.446-0.004
	c-0.033,0.265,0.032,0.259,0.17,0.36c0.312,0.226,0.626,0.45,0.935,0.679C19.895,29.378,19.893,29.381,19.753,29.691L19.753,29.691z
	"/>
<path style="fill:#ECF0F1;" d="M18.341,29.276c0.129,0.106-0.081,0.339-0.241,0.213c-0.355-0.278-0.728-0.535-1.094-0.8
	c-0.153-0.111-0.208-0.274-0.226-0.449c-0.071-0.687-0.133-1.375-0.206-2.063c-0.011-0.106,0.004-0.15,0.115-0.132
	c0.102,0.088,0.16,0.185,0.171,0.333c0.03,0.407,0.065,0.781,0.121,1.219c0.094,0.742,0.22,0.866,0.66,1.146
	C17.908,28.914,18.01,29.006,18.341,29.276z"/>
<path style="fill:#ECF0F1;" d="M29.84,29.579c0.042-0.727,0.077-1.389,0.121-2.05c0.015-0.217,0.027-0.223,0.312-0.196
	c0.098,0.009,0.168-0.399,0.381-0.494c0.009,0.238,0.035,0.425-0.16,0.606c-0.164,0.152-0.225,0.383-0.239,0.615
	c-0.021,0.358-0.066,0.715-0.068,1.072C30.185,29.358,30.078,29.464,29.84,29.579z"/>
<path style="fill:#ECF0F1;" d="M35.279,25.281c-0.133,0.036-0.158-0.038-0.149-0.147c0.04-0.479,0.112-1.957,0.153-2.282
	c0.012-0.095,0.063-0.25-0.067-0.269c-0.137-0.021-0.201,0.111-0.249,0.244c-0.101,0.276-0.338,2.797-0.121,3.059c0,0,0,0,0,0
	C35.138,26.016,35.308,25.607,35.279,25.281C35.279,25.281,35.279,25.28,35.279,25.281C35.279,25.28,35.279,25.28,35.279,25.281z"/>
<path style="fill:#ECF0F1;" d="M31.613,26.144L31.613,26.144C31.613,26.144,31.613,26.144,31.613,26.144
	c-0.02,0.008-0.214,0.199-0.232-0.023c-0.012-0.154-0.004-0.308-0.005-0.463c0,0,0,0,0-0.001c-0.181-0.008-0.211,0.138-0.221,0.256
	c-0.022,0.278-0.038,0.548-0.253,0.765c-0.046,0.046-0.071,0.177-0.04,0.224c0.236,0.353,0.074,0.73,0.08,1.095
	c0.004,0.233-0.129,0.576,0.088,0.66c0.264,0.102,0.504-0.594,0.498-0.593c-0.208,0.015-0.236-0.31-0.226-0.481
	c0.022-0.378-0.108-0.801,0.289-1.095C31.676,26.427,31.633,26.263,31.613,26.144z"/>
<path style="fill:#ECF0F1;" d="M37.606,21.67c-0.523,0.425-0.588,1.125-0.633,1.768c-0.019,0.275,0.031,0.816,0.457,0.613
	c0.749-0.357,0.738-1.261,0.74-2.057C38.171,21.494,37.99,21.358,37.606,21.67z M37.459,23.541c-0.144,0-0.108-0.255-0.1-0.411
	c0.02-0.417,0.131-1.058,0.38-1.058c0.092,0,0.097,0.116,0.1,0.197C37.853,22.614,37.773,23.541,37.459,23.541z"/>
<path style="fill:#ECF0F1;" d="M12.698,25.6c-0.19-0.08-0.29-0.24-0.37-0.42c-0.25-0.51-0.51-1.01-0.76-1.52
	c0.291,0.17,0.669,0.37,0.749,0.32c0.212-0.15-0.16-0.59-0.29-0.69c-0.18-0.13-0.443-0.329-0.693-0.519
	c0.032,0.253,0.076,1.247,0.143,1.659c0.02,0.08,0.07,0.21-0.05,0.24c-0.12,0.03-0.19-0.09-0.2-0.19c-0.05-0.41-0.28-2.27-0.18-2.42
	c0.73,0.52,1.6,0.92,1.72,1.98c0.04,0.44-0.07,0.6-0.47,0.56c0.14,0.27,0.28,0.52,0.4,0.78C12.728,25.44,12.868,25.53,12.698,25.6z"
	/>
<path style="fill:#ECF0F1;" d="M16.438,27.849c-0.266-0.176-0.524-0.363-0.774-0.56c-0.451-0.357-0.616-0.857-0.616-1.406
	c0-0.344,0.173-0.418,0.457-0.23c0.188,0.125,0.362,0.27,0.553,0.39c0.065,0.041,0.143,0.209,0.245,0.028
	c0.065-0.117,0.082-0.21-0.054-0.303c-0.305-0.208-0.595-0.437-0.902-0.642c-0.172-0.115-0.362-0.184-0.506,0.055
	c-0.209,0.688-0.029,1.337,0.305,1.917c0.266,0.461,0.703,0.732,1.082,1.068c0.04,0.035,0.225,0.187,0.31,0.04
	C16.632,28.042,16.585,27.947,16.438,27.849z"/>
<path style="fill:#ECF0F1;" d="M10.733,22.094c-0.329-0.601-1.353-1.245-1.395-1.273c-0.402-0.276-0.622-0.184-0.68,0.304
	c-0.042,0.361,0.068,0.703,0.159,1.049c0.204,0.779,0.815,1.201,1.408,1.641c0.5,0.268,0.696,0.239,0.734-0.315
	C10.965,23.035,10.859,22.324,10.733,22.094z M10.627,23.342c-0.048,0.109-0.115,0.164-0.248,0.128
	c-0.721-0.194-1.438-1.125-1.44-1.883c0-0.143-0.024-0.305,0.123-0.395c0.162-0.1,0.323,0.028,0.44,0.103
	c0.605,0.385,1.091,0.83,1.166,1.619C10.682,23.061,10.688,23.203,10.627,23.342z"/>
<path style="fill:#ECF0F1;" d="M36.756,23.359c-0.151-0.348-0.072-0.579,0.01-0.87c0.039-0.137,0.156-0.716-0.269-0.658
	c-0.297,0.041-0.656,0.416-0.722,0.703c-0.115,0.509-0.159,2.769-0.159,2.769c0.34-0.151,0.595-0.391,0.792-0.664
	C36.68,24.262,36.939,23.781,36.756,23.359z M36.428,23.911c-0.027,0.282-0.11,0.538-0.414,0.68c0-0.263-0.007-0.498,0.003-0.733
	c0.007-0.175,0.14-0.284,0.289-0.267C36.444,23.608,36.44,23.79,36.428,23.911z M36.448,22.641
	c-0.034,0.223-0.088,0.442-0.382,0.616c0.014-0.263,0.013-0.473,0.04-0.679c0.015-0.112,0.121-0.195,0.227-0.187
	C36.478,22.403,36.463,22.542,36.448,22.641z"/>
<path style="fill:#ECF0F1;" d="M32.976,25.087c-0.272,0.007-0.248,0.253-0.26,0.354c-0.002,0.021-0.107,1.603-0.15,1.669
	c-0.054,0.08-0.105,0.212-0.23,0.164c-0.102-0.038-0.073-0.161-0.068-0.25c0.019-0.357,0.05-0.713,0.064-1.07
	c0.004-0.107,0.08-0.364-0.11-0.338c-0.278,0.044-0.313,0.251-0.319,0.477c-0.033,0.474-0.132,0.945-0.08,1.423
	c0.026,0.249,0.102,0.558,0.429,0.371c0.127-0.072,0.301-0.256,0.344-0.471c0.441,0.076,0.33-0.273,0.352-0.475
	c0.052-0.482,0.075-0.968,0.095-1.454C33.049,25.355,33.122,25.199,32.976,25.087z"/>
<path style="fill:#ECF0F1;" d="M14.212,25.077c-0.126-0.332-0.255-0.664-0.387-0.994c-0.034-0.086-0.087-0.176-0.192-0.18
	c-0.124-0.005-0.127,0.111-0.156,0.194l-0.566,1.643c0.024,0.13,0.193,0.256,0.358,0.082c0,0,0,0,0,0
	c0.054-0.133,0.349-0.966,0.477-1.353l0.477,1.302c-0.284,0-0.578-0.383-0.665-0.273c-0.165,0.208,0.363,0.599,0.656,0.792
	c0.167,0.11,0.318,0.463,0.367,0.61c0.049,0.143,0.193,0.363,0.402,0.204C14.727,26.428,14.471,25.753,14.212,25.077z"/>
<path style="fill:#ECF0F1;" d="M33.948,24.329c-0.561,0.385-0.582,0.786-0.388,0.814c0.077-0.072,0.148-0.149,0.23-0.213
	c0.078-0.061,0.176-0.192,0.262-0.097c0.083,0.091,0.08,0.25-0.029,0.36c-0.065,0.066-0.141,0.121-0.207,0.185
	c-0.344,0.332-0.486,0.75-0.5,1.216c-0.003,0.118,0.006,0.257,0.143,0.298c0.109,0.033,0.215-0.043,0.27-0.129
	c0.146-0.23,0.33-0.4,0.6-0.466c0.032-0.639,0.096-1.103,0.096-1.915C34.424,24.13,34.142,24.196,33.948,24.329z M33.803,26.28
	c-0.048,0.033-0.114,0.017-0.123-0.042c-0.045-0.274,0.123-0.446,0.356-0.614c0.034,0.022-0.001-0.008,0,0
	C34.068,25.882,34.039,26.119,33.803,26.28z"/>
</svg>
